<?xml version="1.0" encoding="UTF-8" standalone="no"?>
<!DOCTYPE svg PUBLIC "-//W3C//DTD SVG 1.1//EN" "http://www.w3.org/Graphics/SVG/1.1/DTD/svg11.dtd">
<svg version="1.1" xmlns="http://www.w3.org/2000/svg" xmlns:xlink="http://www.w3.org/1999/xlink" preserveAspectRatio="xMidYMid meet" viewBox="76.43308084608256 116.57151699576404 109.88852533895115 54.68080845133419" width="105.89" height="50.68"><defs><path d="M171.32 119.76C173.95 116.96 178.34 116.83 181.14 119.46C182.15 120.41 180.12 118.51 181.14 119.46C183.93 122.09 184.06 126.49 181.43 129.28C173.8 137.39 155.65 156.66 148.02 164.77C145.39 167.57 140.99 167.7 138.2 165.07C137.19 164.12 139.21 166.02 138.2 165.07C135.41 162.44 135.27 158.05 137.9 155.25C145.54 147.14 163.68 127.87 171.32 119.76Z" id="b6lup4AWq0"></path><path d="M147.8 156.86C148.9 160.53 146.81 164.4 143.14 165.5C141.81 165.9 144.47 165.1 143.14 165.5C139.46 166.6 135.59 164.51 134.49 160.84C132.04 152.64 126.68 134.71 124.23 126.51C123.13 122.83 125.22 118.96 128.89 117.86C130.22 117.47 127.56 118.26 128.89 117.86C132.57 116.77 136.44 118.85 137.54 122.53C139.99 130.73 145.35 148.66 147.8 156.86Z" id="awYP0u7Z2"></path><path d="M122.79 124.09C124.44 120.62 128.58 119.15 132.05 120.8C133.3 121.39 130.79 120.2 132.05 120.8C135.51 122.44 136.99 126.59 135.34 130.05C131.54 138.04 123.13 155.74 119.34 163.73C117.69 167.2 113.55 168.67 110.08 167.03C108.83 166.43 111.34 167.62 110.08 167.03C106.62 165.38 105.14 161.24 106.79 157.77C110.59 149.78 119 132.08 122.79 124.09Z" id="d2KOtbvng"></path><path d="M118.59 158.74C119.83 162.37 117.89 166.32 114.26 167.56C112.94 168 115.57 167.11 114.26 167.56C110.63 168.79 106.68 166.85 105.44 163.22C102.68 155.13 96.64 137.41 93.88 129.31C92.64 125.68 94.58 121.73 98.21 120.5C99.53 120.05 96.9 120.94 98.21 120.5C101.84 119.26 105.79 121.2 107.03 124.83C109.79 132.93 115.83 150.64 118.59 158.74Z" id="an04e9keX"></path><path d="M92.79 124.32C94.31 120.79 98.4 119.17 101.92 120.69C103.2 121.25 100.65 120.14 101.92 120.69C105.44 122.22 107.07 126.3 105.54 129.83C102.04 137.95 94.27 155.94 90.76 164.06C89.24 167.58 85.15 169.2 81.63 167.68C80.35 167.13 82.9 168.23 81.63 167.68C78.1 166.16 76.48 162.07 78 158.55C81.51 150.43 89.28 132.44 92.79 124.32Z" id="c1ejZYeaer"></path></defs><g><g><use xlink:href="#b6lup4AWq0" opacity="1" fill="#787878" fill-opacity="1"></use></g><g><use xlink:href="#awYP0u7Z2" opacity="1" fill="#787878" fill-opacity="1"></use></g><g><use xlink:href="#d2KOtbvng" opacity="1" fill="#787878" fill-opacity="1"></use></g><g><use xlink:href="#an04e9keX" opacity="1" fill="#787878" fill-opacity="1"></use></g><g><use xlink:href="#c1ejZYeaer" opacity="1" fill="#787878" fill-opacity="1"></use></g></g></svg>