<?xml version="1.0" encoding="UTF-8" standalone="no"?>
<!DOCTYPE svg PUBLIC "-//W3C//DTD SVG 1.1//EN" "http://www.w3.org/Graphics/SVG/1.1/DTD/svg11.dtd">
<svg version="1.1" xmlns="http://www.w3.org/2000/svg" xmlns:xlink="http://www.w3.org/1999/xlink" preserveAspectRatio="xMidYMid meet" viewBox="23.22476586888654 -756.7127991675341 34.000000000000014 31.643080124869925" width="30" height="27.64"><defs><path d="M52.18 -733.07C53.31 -733.07 54.22 -732.15 54.22 -731.02C54.22 -730.43 54.22 -730.71 54.22 -730.12C54.22 -728.99 53.31 -728.07 52.18 -728.07C46.59 -728.07 31.86 -728.07 26.27 -728.07C25.14 -728.07 24.22 -728.99 24.22 -730.12C24.22 -730.71 24.22 -730.43 24.22 -731.02C24.22 -732.15 25.14 -733.07 26.27 -733.07C31.86 -733.07 46.59 -733.07 52.18 -733.07Z" id="i2mDe1YQyM"></path><path d="M46.72 -744.39C48.11 -744.39 49.22 -743.27 49.22 -741.89C49.22 -741.39 49.22 -742.39 49.22 -741.89C49.22 -740.51 48.11 -739.39 46.72 -739.39C42.22 -739.39 31.22 -739.39 26.72 -739.39C25.34 -739.39 24.22 -740.51 24.22 -741.89C24.22 -742.39 24.22 -741.39 24.22 -741.89C24.22 -743.27 25.34 -744.39 26.72 -744.39C31.22 -744.39 42.22 -744.39 46.72 -744.39Z" id="gpz7G1pwj"></path><path d="M51.84 -755.71C53.16 -755.71 54.22 -754.64 54.22 -753.33C54.22 -752.85 54.22 -753.8 54.22 -753.33C54.22 -752.01 53.16 -750.94 51.84 -750.94C46.32 -750.94 32.13 -750.94 26.61 -750.94C25.29 -750.94 24.22 -752.01 24.22 -753.33C24.22 -753.8 24.22 -752.85 24.22 -753.33C24.22 -754.64 25.29 -755.71 26.61 -755.71C32.13 -755.71 46.32 -755.71 51.84 -755.71Z" id="c4vPhcn7F"></path></defs><g><g><use xlink:href="#i2mDe1YQyM" opacity="1" fill="#ffffff" fill-opacity="1"></use></g><g><use xlink:href="#gpz7G1pwj" opacity="1" fill="#ffffff" fill-opacity="1"></use></g><g><use xlink:href="#c4vPhcn7F" opacity="1" fill="#ffffff" fill-opacity="1"></use></g></g></svg>